<svg id="Layer_1" data-name="Layer 1" xmlns="http://www.w3.org/2000/svg" preserveAspectRatio="none" viewBox="0 0 224 224">
  <defs>
    <style>
      .cls-1 {
        fill: #fff;
      }
    </style>
  </defs>
  <title>0f37f7e2-28fd-483b-9f8e-6ea63673832d</title>
  <g>
    <path class="cls-1" d="M24,208a8,8,0,0,1-8-8V8A8,8,0,0,0,8,0H8A8,8,0,0,0,0,8V216a8,8,0,0,0,8,8H88a8,8,0,0,0,8-8h0a8,8,0,0,0-8-8H24Z"/>
    <path class="cls-1" d="M208,0H136a8,8,0,0,0-8,8h0a8,8,0,0,0,8,8h64a8,8,0,0,1,8,8V216a8,8,0,0,0,8,8h0a8,8,0,0,0,8-8V8a8,8,0,0,0-8-8h-8Z"/>
  </g>
  <path class="cls-1" d="M176,112L128.4,88.2a0.7,0.7,0,0,1-.4-0.7V81.2a0.7,0.7,0,0,1,1.1-.7L192,112,128,80l62.7,31.3a0.7,0.7,0,0,1,0,1.3l-61.6,30.8a0.7,0.7,0,0,1-1.1-.7v-6.3a0.7,0.7,0,0,1,.4-0.7l46.3-23.1a0.7,0.7,0,0,0,0-1.3L128,88l48,24"/>
  <path class="cls-1" d="M48,112L95.6,88.2a0.7,0.7,0,0,0,.4-0.7V81.2a0.7,0.7,0,0,0-1.1-.7L32,112,96,80,33.3,111.3a0.7,0.7,0,0,0,0,1.3l61.6,30.8a0.7,0.7,0,0,0,1.1-.7v-6.3a0.7,0.7,0,0,0-.4-0.7L49.3,112.7a0.7,0.7,0,0,1,0-1.3L96,88,48,112"/>
</svg>
